<?xml version="1.0" standalone="no"?>
<!DOCTYPE svg PUBLIC "-//W3C//DTD SVG 1.1//EN" "http://www.w3.org/Graphics/SVG/1.1/DTD/svg11.dtd" >
<svg xmlns="http://www.w3.org/2000/svg" xmlns:xlink="http://www.w3.org/1999/xlink" version="1.1">
<metadata></metadata>
<defs>
<font id="public_sansblack" horiz-adv-x="1497" >
<font-face units-per-em="2048" ascent="1597" descent="-451" />
<missing-glyph horiz-adv-x="430" />
<glyph unicode="&#xfb01;" horiz-adv-x="1386" d="M20 788v271h170v141q0 130 85.5 205.5t232.5 75.5h283l2 -258h-123q-50 0 -69 -22.5t-19 -80.5v-61h200v-271h-192v-788h-400v788h-170zM895 0v1059h399v-1059h-399zM895 1186v336h399v-336h-399z" />
<glyph unicode="&#xfb02;" horiz-adv-x="1488" d="M20 788v271h170v141q0 130 85.5 205.5t232.5 75.5h283l2 -258h-123q-50 0 -69 -22.5t-19 -80.5v-61h200v-271h-192v-788h-400v788h-170zM895 319v1203h391v-1149q0 -22 4 -38.5t15.5 -33.5t36.5 -28.5t63 -16.5l43 -4v-242q-86 -33 -150 -33q-81 0 -145 11.5t-106 28.5 t-71.5 46t-45 55t-24 65.5t-10 66.5t-1.5 69z" />
<glyph horiz-adv-x="53" />
<glyph horiz-adv-x="53" />
<glyph horiz-adv-x="682" />
<glyph unicode="&#xd;" horiz-adv-x="495" />
<glyph unicode=" "  horiz-adv-x="430" />
<glyph unicode="&#x09;" horiz-adv-x="430" />
<glyph unicode="&#xa0;" horiz-adv-x="430" />
<glyph unicode="!" horiz-adv-x="634" d="M72 1481h460l-104 -951h-244zM92 0v393h420v-393h-420z" />
<glyph unicode="&#x22;" horiz-adv-x="1083" d="M92 1481h375l-94 -660h-187zM616 1481h375l-94 -660h-186z" />
<glyph unicode="#" horiz-adv-x="1286" d="M41 442v193h256l33 227h-224v193h252l64 430l190 -19l-59 -411h252l63 430l193 -19l-60 -411h224v-193h-252l-33 -227h219v-193h-246l-65 -448l-195 24l62 424h-250l-66 -448l-192 24l61 424h-227zM492 635h251l33 227h-252z" />
<glyph unicode="$" horiz-adv-x="1435" d="M82 451h414q17 -78 83.5 -122t170.5 -44q89 0 135.5 38.5t46.5 96.5q0 63 -42 89t-145 42l-231 39q-178 29 -282 140.5t-107 295.5q-3 181 123.5 301.5t331.5 157.5v198h333v-200q199 -38 312 -161.5t104 -289.5h-403q-3 38 -11 63.5t-25.5 49.5t-51.5 35.5t-84 11.5 q-107 0 -155 -35t-48 -82q0 -53 34 -81t128 -48l231 -47q410 -84 410 -479q0 -171 -117 -283.5t-324 -144.5v-170h-333v168q-465 62 -498 461z" />
<glyph unicode="%" horiz-adv-x="1988" d="M82 1079q0 109 52.5 206.5t144.5 157.5t200 60q107 0 198 -60t143 -157.5t52 -206.5q0 -164 -114.5 -287.5t-278.5 -123.5q-109 0 -201.5 58t-144 152t-51.5 201zM371 1079q0 -112 23.5 -164.5t82.5 -52.5q60 0 83.5 52t23.5 165q0 118 -24.5 175t-82.5 57t-82 -57 t-24 -175zM428 -4l997 1501h215l-995 -1505zM1094 393q0 108 52.5 205.5t145 158t199.5 60.5t199 -60.5t144 -158t52 -205.5q0 -165 -115 -289t-280 -124q-109 0 -201.5 58.5t-144 153t-51.5 201.5zM1384 391q0 -111 23 -163t82 -52q60 0 83 51.5t23 163.5q0 119 -24 175.5 t-82 56.5t-81.5 -57t-23.5 -175z" />
<glyph unicode="&#x26;" horiz-adv-x="1744" d="M102 371q0 78 24 141.5t76.5 118.5t121 101.5t172.5 101.5q-13 15 -45 51t-43.5 49.5t-32.5 43t-29 50t-15 50t-7 61.5q0 158 136 261t351 103q140 0 253 -41t178 -116t65 -170q0 -107 -81.5 -200t-226.5 -190l148 -174l33 115.5t41 153.5h413q-39 -84 -153 -254.5 t-150 -239.5l332 -387h-455l-110 127q-211 -137 -490 -137q-257 0 -381.5 103t-124.5 278zM551 399q14 -55 62.5 -83.5t97.5 -28.5q44 0 101.5 17.5t96.5 51.5l-223 256q-69 -40 -110 -94.5t-25 -118.5zM715 1167q0 -58 78 -141l47 -49q125 87 125 178q0 58 -38.5 90 t-95.5 29q-52 -3 -84 -32.5t-32 -74.5z" />
<glyph unicode="'" horiz-adv-x="559" d="M92 1481h375l-94 -660h-187z" />
<glyph unicode="(" horiz-adv-x="739" d="M102 569q0 248 77 480t214 432h285q-232 -435 -232 -914q0 -227 57.5 -440.5t174.5 -456.5h-283q-147 244 -220 449t-73 450z" />
<glyph unicode=")" horiz-adv-x="739" d="M10 -330q117 243 174.5 456.5t57.5 440.5q0 479 -232 914h285q137 -200 214 -432t77 -480q0 -245 -73 -450t-220 -449h-283z" />
<glyph unicode="*" horiz-adv-x="1116" d="M61 1055l82 223l310 -141l-27 344h246l-35 -346l315 141l72 -225l-319 -86l223 -263l-205 -141l-178 299l-178 -303l-203 143l227 265z" />
<glyph unicode="+" horiz-adv-x="1267" d="M113 604v283h381v381h282v-381h379v-283h-379v-379h-282v379h-381z" />
<glyph unicode="," horiz-adv-x="632" d="M102 -313l123 301l-119 14v346h363v-307l-236 -354h-131z" />
<glyph unicode="-" horiz-adv-x="839" d="M113 385v281h594v-281h-594z" />
<glyph unicode="." horiz-adv-x="634" d="M92 0v401h420v-401h-420z" />
<glyph unicode="/" horiz-adv-x="837" d="M20 0l523 1481h264l-522 -1481h-265z" />
<glyph unicode="0" horiz-adv-x="1339" d="M61 737q0 361 162 563.5t449 202.5q286 0 446 -202.5t160 -563.5q0 -360 -158 -556.5t-448 -196.5q-292 0 -451.5 197t-159.5 556zM473 735q0 -242 44 -341t153 -99q110 0 153 98t43 342q0 251 -44.5 356t-151.5 105t-152 -105.5t-45 -355.5z" />
<glyph unicode="1" horiz-adv-x="901" d="M72 1047v208q177 0 275 61t114 165h256v-1481h-400v1047h-245z" />
<glyph unicode="2" horiz-adv-x="1372" d="M82 958q0 117 38.5 214.5t114 171.5t196.5 115.5t276 41.5q271 0 427 -129t156 -342q0 -105 -41 -188.5t-106 -136t-144.5 -93.5t-158.5 -71.5t-144 -59.5t-106 -67t-41 -86h731v-328h-1176v266q0 106 42.5 192t110 142.5t149.5 103t164 82t149.5 70t110 77t42.5 93.5 q0 68 -47 111t-127 43q-89 0 -154 -53t-87 -169h-375z" />
<glyph unicode="3" horiz-adv-x="1363" d="M51 487h377q36 -196 227 -196q111 0 173.5 43t62.5 112q0 61 -55.5 102.5t-149.5 45.5l-149 8v307l129 11q196 15 196 151q0 65 -61.5 98t-149.5 33q-102 0 -158 -43t-67 -155h-375q0 126 46.5 223t130 156t193 88.5t241.5 29.5q108 0 200 -14t170.5 -45.5t134 -79 t86.5 -116.5t31 -156q0 -113 -61 -191.5t-199 -124.5q55 -15 103.5 -41t92 -66.5t68.5 -101.5t25 -135q0 -112 -53.5 -200t-145.5 -141.5t-208.5 -81t-250.5 -27.5q-298 0 -451 131.5t-153 375.5z" />
<glyph unicode="4" horiz-adv-x="1331" d="M41 283v311l661 887h385v-873h213v-325h-213v-283h-380l2 283h-668zM403 608h310v412z" />
<glyph unicode="5" horiz-adv-x="1404" d="M51 297l297 201q33 -42 53 -66t53 -55t62 -47t70.5 -27.5t87.5 -11.5q108 0 176 51.5t68 126.5q0 74 -64 128t-174 54q-46 0 -89 -11.5t-112 -41.5q-22 -9 -29.5 -8.5t-29.5 10.5l-270 145l69 736h1012l-17 -320h-690l-22 -246q105 29 163 40.5t128 11.5 q245 0 392.5 -129t147.5 -355q0 -236 -164 -369.5t-448 -133.5q-226 0 -406 88t-264 229z" />
<glyph unicode="6" horiz-adv-x="1390" d="M61 707q0 371 178.5 582.5t481.5 211.5q155 0 284 -54t209 -161.5t80 -249.5h-360q-24 82 -74 120t-129 38q-122 0 -185.5 -102t-39.5 -236q111 68 297 68q231 0 373.5 -122.5t142.5 -318.5q0 -141 -78 -254t-216.5 -177t-311.5 -64q-202 0 -350 90t-225 252t-77 377z M502 528q0 -125 52 -188.5t142 -63.5q81 0 143 54t62 135q0 60 -32 100.5t-76 56t-95 15.5q-65 0 -130.5 -39.5t-65.5 -69.5z" />
<glyph unicode="7" horiz-adv-x="1247" d="M51 1161v320h1166v-320q-106 -117 -214 -317.5t-182.5 -435.5t-70.5 -408h-428q0 88 25.5 211t78.5 278t153.5 334t231.5 338h-760z" />
<glyph unicode="8" horiz-adv-x="1335" d="M41 420q0 120 83.5 221.5t182.5 124.5q-89 47 -146 126t-57 181q0 136 74.5 233t200.5 144t289 47t288.5 -47t200 -144t74.5 -233q0 -102 -57 -181t-146 -126q99 -23 182.5 -124.5t83.5 -221.5q0 -202 -171 -319t-455 -117t-455.5 117t-171.5 319zM463 434 q0 -75 54 -119.5t151 -44.5t150.5 44.5t53.5 119.5q0 76 -53.5 122t-150.5 46t-151 -46t-54 -122zM498 1079q0 -75 49 -120.5t121 -45.5t121 45.5t49 120.5t-49 120.5t-121 45.5t-121 -45.5t-49 -120.5z" />
<glyph unicode="9" horiz-adv-x="1392" d="M72 1001q0 216 168 356t430 140q304 0 477.5 -195.5t173.5 -523.5q0 -206 -46.5 -359.5t-134.5 -248t-208 -140.5t-273 -46q-154 0 -285 56.5t-212 164.5t-82 244h375q12 -73 60.5 -115.5t125.5 -42.5q66 0 118.5 18t93.5 57t59 110t8 169q-101 -104 -314 -104 q-234 0 -384 126.5t-150 333.5zM498 1020q0 -82 55 -127t131 -45q65 0 131 39t66 69q0 126 -52.5 190t-142.5 64q-79 0 -133.5 -53.5t-54.5 -136.5z" />
<glyph unicode=":" horiz-adv-x="634" d="M92 6v393h420v-393h-420zM92 655v394h420v-394h-420z" />
<glyph unicode=";" horiz-adv-x="641" d="M92 -338l150 338h-144v395h420v-350l-268 -383h-158zM98 641v401h420v-401h-420z" />
<glyph unicode="&#x3c;" horiz-adv-x="1241" d="M113 539v317l1015 391v-327l-593 -226l593 -215v-332z" />
<glyph unicode="=" horiz-adv-x="1267" d="M113 315v283h1042v-283h-1042zM113 797v282h1042v-282h-1042z" />
<glyph unicode="&#x3e;" horiz-adv-x="1243" d="M113 147v332l596 215l-596 226v327l1017 -391v-317z" />
<glyph unicode="?" horiz-adv-x="1140" d="M0 1128q66 183 206 278t347 95q225 0 370.5 -101.5t145.5 -240.5q0 -65 -21 -120t-55 -94.5t-74.5 -75t-81.5 -69.5t-75 -70t-55 -85.5t-21 -107.5h-311q0 103 31.5 187.5t76.5 139t89.5 99t76 88.5t31.5 86q0 46 -38.5 75t-92.5 29q-68 0 -126 -48t-91 -136zM319 0v393 h420v-393h-420z" />
<glyph unicode="@" horiz-adv-x="1738" d="M92 522q0 161 58.5 306t163.5 254t264 173t348 64q114 0 218.5 -23t199 -73.5t163.5 -124t109.5 -182t40.5 -240.5q0 -228 -110.5 -371t-289.5 -143q-128 0 -202 86q-9 10 -13.5 9.5t-13.5 -11.5q-46 -51 -113.5 -82t-144.5 -31q-140 0 -229 97.5t-88 256.5q0 121 49 225 t145.5 170t220.5 66q53 0 94.5 -13.5t62 -28t50.5 -42.5q6 -6 12 -4t7 12l4 25h213l-72 -428q-18 -100 47 -100q60 0 107 75t47 220q0 126 -41.5 217.5t-115.5 141.5t-162 72.5t-195 22.5q-160 0 -280.5 -47t-190.5 -130t-104 -186.5t-34 -226.5q0 -279 161 -424t437 -145 q67 0 120.5 8t98.5 26.5t75.5 35.5t74.5 47l109 -146q-75 -65 -210.5 -110t-301.5 -45q-182 0 -332 58.5t-249 160.5t-153.5 237.5t-54.5 290.5zM715 516q0 -66 32.5 -113t94.5 -47q74 0 125 64.5t51 144.5q0 65 -34 113.5t-95 48.5q-69 0 -121.5 -61.5t-52.5 -149.5z" />
<glyph unicode="A" d="M20 0l525 1481h407l525 -1481h-394l-98 287h-467l-100 -287h-398zM602 627h293l-145 473z" />
<glyph unicode="B" horiz-adv-x="1445" d="M143 0v1481h592q305 0 449.5 -99t144.5 -292q0 -107 -53.5 -185t-185.5 -143q74 -22 128 -57.5t81.5 -70t43 -80.5t18.5 -77.5t3 -73.5q0 -210 -139 -306.5t-457 -96.5h-625zM543 299h239q83 0 129.5 45.5t46.5 108.5q0 62 -45.5 102.5t-119.5 40.5h-250v-297zM543 903 h250q70 0 111.5 38t41.5 97q0 65 -48 104.5t-120 39.5h-235v-279z" />
<glyph unicode="C" horiz-adv-x="1525" d="M92 760q0 338 192.5 539.5t516.5 201.5q263 0 440.5 -151.5t202.5 -391.5h-416q-18 105 -79.5 164.5t-162.5 59.5q-122 0 -190 -98.5t-68 -329.5q0 -236 69 -345.5t189 -109.5q98 0 161 72t81 182h416q-13 -100 -37 -178.5t-71.5 -155t-115.5 -127t-174.5 -81.5 t-244.5 -31q-210 0 -372.5 101t-249.5 278t-87 401z" />
<glyph unicode="D" horiz-adv-x="1523" d="M143 0v1481q469 0 533 -2q197 -7 345 -63t239.5 -154t136.5 -227.5t45 -289.5q0 -164 -47 -299t-139.5 -235t-241 -155.5t-340.5 -55.5h-531zM543 313h143q48 0 94 14.5t91 48t79 82.5t55 125t21 169q0 200 -92 307.5t-248 107.5h-143v-854z" />
<glyph unicode="E" horiz-adv-x="1351" d="M143 0v1481h1094l-2 -330h-690v-246h577v-321h-579v-252h696v-332h-1096z" />
<glyph unicode="F" horiz-adv-x="1290" d="M143 0v1481h1086l-2 -326h-684v-266h571v-318h-571v-571h-400z" />
<glyph unicode="G" horiz-adv-x="1609" d="M92 735q0 170 53.5 313.5t149 242.5t230 154.5t292.5 55.5q144 0 267 -46t204.5 -122t127.5 -173.5t48 -201.5h-415q-22 97 -82.5 155t-159.5 58q-58 0 -106.5 -22t-88.5 -69t-63 -132t-23 -200q0 -104 19 -182.5t48.5 -123t71 -72t78.5 -36t80 -8.5q80 0 139.5 42 t75.5 97l19 53h-258v268l678 -4v-782h-263v164q-26 -27 -41 -41t-46 -40t-60.5 -40.5t-71 -31t-92.5 -24t-110 -7.5q-208 0 -368 95.5t-246.5 267t-86.5 392.5z" />
<glyph unicode="H" horiz-adv-x="1533" d="M143 0v1481h400v-561h448v561h400v-1481h-400v594h-448v-594h-400z" />
<glyph unicode="I" horiz-adv-x="686" d="M143 0v1481h400v-1481h-400z" />
<glyph unicode="J" horiz-adv-x="870" d="M51 0v358q92 -10 131 -10q102 0 139 51t37 172v910h400v-1012q0 -103 -11.5 -177t-40 -136t-78 -99t-126 -57t-183.5 -20q-166 0 -268 20z" />
<glyph unicode="K" horiz-adv-x="1540" d="M143 0v1481h414v-598l428 598h449l-408 -566l473 -915h-428l-330 625l-184 -238v-387h-414z" />
<glyph unicode="L" horiz-adv-x="1185" d="M143 0v1481h400v-1153h592v-328h-992z" />
<glyph unicode="M" horiz-adv-x="1949" d="M143 0v1481h592l240 -903l242 903h589v-1481h-399v1073l-289 -1073h-287l-288 1073v-1073h-400z" />
<glyph unicode="N" horiz-adv-x="1665" d="M143 0v1481h402l577 -826v826h400v-1481h-361l-618 883v-883h-400z" />
<glyph unicode="O" horiz-adv-x="1617" d="M92 737q0 229 89.5 402.5t252.5 267.5t377 94q323 0 519 -208.5t196 -555.5q0 -228 -87.5 -399.5t-249.5 -264.5t-378 -93q-330 0 -524.5 205.5t-194.5 551.5zM526 731q0 -227 76.5 -329.5t208.5 -102.5q283 0 283 432q0 121 -21 209.5t-59.5 140.5t-88.5 76.5t-114 24.5 q-132 0 -208.5 -108t-76.5 -343z" />
<glyph unicode="P" horiz-adv-x="1372" d="M143 0v1481h586q166 0 296.5 -57.5t208 -172.5t77.5 -272q0 -219 -142.5 -344t-388.5 -125h-237v-510h-400zM539 807h229q73 0 124.5 59t51.5 133q0 75 -54.5 131t-121.5 56h-229v-379z" />
<glyph unicode="Q" horiz-adv-x="1609" d="M61 737q0 229 89.5 402.5t252.5 267.5t377 94q324 0 520.5 -208.5t196.5 -555.5q0 -348 -209 -573q12 -43 73.5 -76t135.5 -33v-311q-100 0 -164 7.5t-133.5 32.5t-130 74.5t-125.5 131.5q-90 -10 -164 -10q-330 0 -524.5 205.5t-194.5 551.5zM498 733q0 -232 71.5 -333 t210.5 -101t211 101t72 333q0 237 -73.5 343t-209.5 106t-209 -106t-73 -343z" />
<glyph unicode="R" horiz-adv-x="1466" d="M143 0v1481h672q140 0 245 -36.5t167.5 -102t92.5 -150t30 -188.5q0 -160 -61.5 -261t-174.5 -170l260 -573h-407l-215 510h-209v-510h-400zM543 807h227q74 0 126 59t52 133q0 75 -54.5 131t-123.5 56h-227v-379z" />
<glyph unicode="S" horiz-adv-x="1482" d="M82 451h414q17 -78 83.5 -122t170.5 -44q106 0 174.5 31.5t68.5 103.5q0 22 -9 39.5t-28.5 30.5t-38.5 22t-53 16.5t-56.5 12t-62.5 10.5l-231 39q-178 29 -282 140.5t-107 295.5v7q1 141 83 247q84 109 224 164t313 55q132 0 249.5 -38.5t200 -103.5t134.5 -149.5 t62 -175.5h-404q-9 84 -67.5 122t-165.5 38t-155 -35t-48 -82q0 -53 34.5 -82.5t127.5 -46.5l231 -39q89 -15 160.5 -43t118.5 -60t81.5 -74t52.5 -79.5t28.5 -83t13 -77.5t2.5 -70q0 -124 -84.5 -225t-233 -158t-331.5 -57q-96 0 -187 17t-175.5 54t-149.5 91t-107.5 133.5 t-50.5 175.5z" />
<glyph unicode="T" horiz-adv-x="1304" d="M31 1130v351h1243v-351h-424v-1130h-399v1130h-420z" />
<glyph unicode="U" horiz-adv-x="1533" d="M143 612v869h404v-885q0 -144 66 -213.5t169 -69.5q102 0 169 69.5t67 213.5v885h403v-869q0 -146 -33.5 -258.5t-106.5 -198t-198.5 -130.5t-300.5 -45t-300.5 45t-198.5 130.5t-106.5 198t-33.5 258.5z" />
<glyph unicode="V" horiz-adv-x="1478" d="M20 1481h375l344 -1014l342 1014h377l-500 -1481h-438z" />
<glyph unicode="W" horiz-adv-x="2011" d="M31 1481h385l229 -795l221 795h279l229 -795l221 795h385l-442 -1481h-297l-235 805l-236 -805h-293z" />
<glyph unicode="X" horiz-adv-x="1521" d="M31 0l483 748l-471 733h494l229 -402l227 402h418l-442 -676l522 -805h-498l-272 465l-266 -465h-424z" />
<glyph unicode="Y" horiz-adv-x="1468" d="M10 1481h430l293 -527l291 527h434l-526 -865v-616h-400v616z" />
<glyph unicode="Z" horiz-adv-x="1445" d="M92 0v182l699 971h-633v328h1206v-174l-713 -975h701v-332h-1260z" />
<glyph unicode="[" horiz-adv-x="753" d="M123 -330v1811h549v-213h-232v-1385h232v-213h-549z" />
<glyph unicode="\" horiz-adv-x="837" d="M10 1481h264l523 -1481h-265z" />
<glyph unicode="]" horiz-adv-x="753" d="M20 -117h232v1385h-232v213h549v-1811h-549v213z" />
<glyph unicode="^" horiz-adv-x="1011" d="M51 240l332 766q20 45 64.5 63t89 1.5t65.5 -62.5l328 -768h-250l-188 454l-189 -454h-252z" />
<glyph unicode="_" horiz-adv-x="1198" d="M113 -41h962v-278h-962v278z" />
<glyph unicode="`" horiz-adv-x="702" d="M29 1264l86 241l534 -219l-53 -158z" />
<glyph unicode="a" horiz-adv-x="1171" d="M51 317q0 175 140 269t423 94h82v45q0 51 -28 74q-27 22 -83 22h-5q-124 -5 -164 -92h-324q4 91 45 159.5t111 109.5t157.5 61t192.5 20q135 0 230 -23.5t148.5 -68.5t77 -102.5t23.5 -134.5v-750h-329l-35 168q-46 -104 -115 -146t-180 -42q-158 0 -262.5 89.5 t-104.5 247.5zM426 358q0 -58 38.5 -92.5t92.5 -34.5q58 0 97.5 37.5t41.5 89.5v134h-63q-27 0 -59.5 -6.5t-67 -21t-57.5 -42t-23 -64.5z" />
<glyph unicode="b" horiz-adv-x="1255" d="M102 0v1522h400v-623q51 91 129 135.5t162 44.5q194 0 302.5 -145t108.5 -397q0 -257 -118.5 -407t-335.5 -150q-105 0 -195 42.5t-131 124.5l-41 -147h-281zM502 541q0 -283 141 -283q158 0 158 283q0 147 -40.5 202.5t-111.5 55.5q-147 0 -147 -258z" />
<glyph unicode="c" horiz-adv-x="1101" d="M51 524q0 244 151.5 399.5t383.5 155.5q109 0 197.5 -37t145.5 -100t88.5 -143.5t33.5 -171.5h-324q-4 26 -11.5 50t-22.5 50t-42 41.5t-63 15.5q-79 0 -124.5 -65.5t-45.5 -190.5q0 -128 49.5 -201t128.5 -73q35 0 62 17.5t41.5 45t21.5 50t10 43.5h313 q0 -85 -31.5 -162.5t-88.5 -137t-145 -95t-193 -35.5q-230 0 -382.5 152t-152.5 392z" />
<glyph unicode="d" horiz-adv-x="1247" d="M51 537q0 252 109 397t303 145q90 0 168.5 -33t124.5 -108v584h399v-1522h-283l-47 217q-76 -237 -319 -237q-217 0 -336 150t-119 407zM436 541q0 -150 45 -216.5t121 -66.5q69 0 111.5 58.5t42.5 172.5v93q0 217 -158 217q-34 0 -60.5 -11t-50.5 -37.5t-37.5 -79.5 t-13.5 -130z" />
<glyph unicode="e" horiz-adv-x="1165" d="M51 516q0 114 37 216t104.5 179t170.5 122.5t227 45.5q168 0 287.5 -73t176 -195t56.5 -281v-92h-668q-1 -90 42 -135t112 -45q61 0 102 22t64 80h352q-24 -170 -173.5 -275t-334.5 -105q-248 0 -401.5 147.5t-153.5 388.5zM440 662h303q0 63 -40.5 106t-112.5 43 q-61 0 -105.5 -44.5t-44.5 -104.5z" />
<glyph unicode="f" horiz-adv-x="792" d="M20 788v271h170v141q0 130 85.5 205.5t232.5 75.5h283l2 -258h-123q-50 0 -69 -22.5t-19 -80.5v-61h200v-271h-192v-788h-400v788h-170z" />
<glyph unicode="g" horiz-adv-x="1296" d="M10 -106q0 20 5.5 38t14.5 32t22.5 26.5t27 22t30 17.5t30 13t29 10t24.5 7t19 4l9 2l-15 7.5t-21.5 11t-24 14t-26 18.5t-23.5 23.5t-20.5 29t-13 34t-5.5 40.5q0 67 62 118.5t181 67.5q-110 48 -168.5 136t-58.5 179q0 103 75 179.5t196 113.5t268 37 q103 0 171.5 -19.5t139.5 -56.5q247 96 348 138l-2 -283l-180 -25q12 -46 12 -81q0 -69 -34 -133.5t-96.5 -116.5t-162.5 -83.5t-221 -31.5q-88 0 -141 6q-29 -6 -29 -18q0 -18 29.5 -23.5t107.5 -9.5q22 -1 33 -2q164 -9 211 -12q210 -14 316 -101t106 -217 q0 -160 -156.5 -258t-447.5 -98q-301 0 -461 68.5t-160 175.5zM397 -59q0 -49 67 -65.5t228 -16.5q97 0 131.5 16t34.5 49q0 34 -34.5 54.5t-96.5 25.5l-192 12q-11 1 -21 1q-59 0 -86 -20q-31 -23 -31 -56zM487 731q0 -61 35.5 -100t91.5 -39t91.5 39t35.5 100 q0 62 -35.5 106t-91.5 44t-91.5 -44t-35.5 -106z" />
<glyph unicode="h" horiz-adv-x="1243" d="M102 0v1522h400v-594q23 29 42 47t52 40t79 33t105 11q154 0 262.5 -98t108.5 -252v-709h-399v662q0 42 -39 69t-86 27t-86 -29.5t-39 -71.5v-657h-400z" />
<glyph unicode="i" horiz-adv-x="593" d="M102 0v1059h400v-1059h-400zM102 1186v336h400v-336h-400z" />
<glyph unicode="j" horiz-adv-x="649" d="M-20 -39l61 10q55 11 75.5 31.5t20.5 54.5v1002h400v-1002q0 -397 -418 -397q-47 0 -81.5 9t-45.5 17l-10 9zM137 1186v336h400v-336h-400z" />
<glyph unicode="k" horiz-adv-x="1230" d="M102 0v1522h400v-820l291 357h415l-387 -438l389 -621h-387l-243 389l-78 -90v-299h-400z" />
<glyph unicode="l" horiz-adv-x="696" d="M102 319v1203h392v-1149q0 -22 4 -38.5t15 -33.5t36 -28.5t63 -16.5l43 -4v-242q-86 -33 -149 -33q-81 0 -145 11.5t-106 28.5t-72 46t-45.5 55t-24 65.5t-10 67t-1.5 68.5z" />
<glyph unicode="m" horiz-adv-x="1892" d="M102 0v1059h394v-127q122 147 344 147q86 0 165 -35t128 -112q55 67 144 107t177 40q84 0 162 -38.5t131 -116.5t53 -179v-745h-399v698q0 44 -38 71.5t-85 27.5q-80 0 -104.5 -39t-24.5 -123v-635h-397v698q0 43 -38.5 71t-86.5 28t-86.5 -28t-38.5 -71v-698h-400z" />
<glyph unicode="n" horiz-adv-x="1245" d="M102 0v1059h396v-127q32 33 40 41t39 32.5t53.5 32.5t63 16.5t88.5 8.5q144 0 257.5 -101.5t113.5 -246.5v-715h-399v662q0 42 -38 69t-85 27q-48 0 -88.5 -27t-40.5 -69v-662h-400z" />
<glyph unicode="o" horiz-adv-x="1177" d="M51 522q0 249 150.5 403t388.5 154q245 0 390.5 -155.5t145.5 -401.5q0 -239 -147 -390.5t-391 -151.5t-390.5 151t-146.5 391zM438 537q0 -38 3.5 -72t13.5 -71.5t26 -64t44 -44t65 -17.5q45 0 76.5 25t46 68t20.5 85t6 91q0 258 -149 258q-152 0 -152 -258z" />
<glyph unicode="p" horiz-adv-x="1255" d="M102 -330v1389h402v-123q105 143 291 143q85 0 157.5 -33.5t129.5 -98.5t89.5 -172t32.5 -243q0 -145 -38.5 -255t-104 -173t-143.5 -93.5t-166 -30.5q-84 0 -144 37.5t-106 142.5v-490h-400zM502 453q0 -82 50 -138.5t116 -56.5q71 0 119.5 69.5t48.5 204.5 q0 124 -49 195.5t-119 71.5q-64 0 -115 -58.5t-51 -128.5v-159z" />
<glyph unicode="q" horiz-adv-x="1247" d="M51 532q0 136 33 243t90.5 172t130.5 98.5t158 33.5q77 0 154 -26t137 -76v82h401v-1389h-399v428q-126 -118 -283 -118q-87 0 -160.5 30.5t-133.5 93.5t-94 172.5t-34 255.5zM455 541q0 -140 44 -221.5t113 -81.5q68 0 106 80.5t38 222.5q0 278 -144 278 q-71 0 -114 -69.5t-43 -208.5z" />
<glyph unicode="r" horiz-adv-x="866" d="M102 0v1059h385v-293q40 140 129 226.5t228 86.5l2 -374q-62 4 -110 4h-18q-54 -1 -92.5 -16.5t-62.5 -32.5t-37.5 -44.5t-18.5 -52t-5 -55.5v-508h-400z" />
<glyph unicode="s" horiz-adv-x="1112" d="M61 356h338q9 -36 31.5 -60.5t50.5 -35t48 -14.5t38 -4q69 0 109.5 16t40.5 47q0 30 -28.5 47t-98.5 27l-158 24q-340 62 -340 329q0 150 127 248q129 100 354 99q217 0 347 -95q124 -91 124 -241v-14h-323q-11 45 -54.5 66.5t-103.5 21.5q-127 0 -127 -57q0 -28 37 -45 t123 -31l135 -25q78 -19 137.5 -51.5t93 -67.5t54.5 -76.5t28 -73.5t7 -62q0 -110 -65 -190t-172.5 -119t-244.5 -39q-86 0 -167 21.5t-152.5 64.5t-122 118t-66.5 172z" />
<glyph unicode="t" horiz-adv-x="913" d="M31 788v271h186l59 330h324v-328h231v-273h-231l2 -479q0 -57 64 -57h165v-236q-66 -32 -210 -32q-121 0 -205.5 23.5t-129.5 67t-64 96t-19 120.5v497h-172z" />
<glyph unicode="u" horiz-adv-x="1245" d="M102 313v746h400v-690q0 -48 32.5 -78.5t90.5 -30.5t91.5 31t33.5 78v690h403l-8 -1059h-295l-47 217q-44 -237 -309 -237q-66 0 -134 22.5t-126 63.5t-95 106t-37 141z" />
<glyph unicode="v" horiz-adv-x="1099" d="M10 1059h355l186 -541l178 541h361l-412 -1059h-256z" />
<glyph unicode="w" horiz-adv-x="1634" d="M10 1059h346l166 -514l156 514h276l152 -516l164 516h354l-373 -1059h-284l-158 514l-168 -514h-272z" />
<glyph unicode="x" horiz-adv-x="1247" d="M10 0l406 553l-369 506h410l170 -230l168 230h409l-373 -506l406 -553h-410l-202 281l-205 -281h-410z" />
<glyph unicode="y" horiz-adv-x="1210" d="M10 1059h391l201 -576l209 576h389l-414 -998q-40 -98 -83 -169.5t-85 -115.5t-91 -69.5t-96 -35t-105 -9.5q-73 0 -131 11t-79 23l-22 11v252l103 -6q25 -2 48 -2q149 0 172 87q1 2 1 3l4 20z" />
<glyph unicode="z" horiz-adv-x="1124" d="M51 0v188l494 627h-449v244h955v-182l-500 -629h502v-248h-1002z" />
<glyph unicode="{" horiz-adv-x="892" d="M31 496v184q125 0 178 39t53 129v362q0 67 33.5 120.5t87 85.5t115 48.5t123.5 16.5h190v-213h-104q-37 0 -62 -6.5t-37.5 -15t-19 -25.5t-7.5 -28t-1 -32v-379q-2 -48 -24 -84.5t-57.5 -57t-71 -31.5t-75.5 -15q-8 -1 -11 -3.5t-0.5 -5t11.5 -3.5q221 -19 228 -209v-383 q0 -58 27.5 -82.5t99.5 -24.5h104v-213h-184q-64 0 -126.5 16.5t-117 48.5t-88 86t-33.5 122v393q0 160 -231 160z" />
<glyph unicode="|" horiz-adv-x="569" d="M143 -330v2022h283v-2022h-283z" />
<glyph unicode="}" horiz-adv-x="882" d="M20 -117h105q72 0 99.5 24.5t27.5 82.5v383q7 190 227 209q9 1 11.5 3.5t-0.5 5t-11 3.5q-40 4 -75.5 15t-70.5 31.5t-57 57t-24 84.5v379q0 21 -1 32t-7.5 28t-19 25.5t-37.5 15t-62 6.5h-105v213h191q62 0 123 -16.5t114.5 -48.5t87 -85.5t33.5 -120.5v-362 q0 -90 53.5 -129t178.5 -39v-184q-232 0 -232 -160v-393q0 -68 -33.5 -122t-87.5 -86t-116.5 -48.5t-126.5 -16.5h-185v213z" />
<glyph unicode="~" horiz-adv-x="1335" d="M113 711q107 114 187.5 168.5t178.5 54.5q59 0 115.5 -22t93 -48.5t83 -48.5t87.5 -22q67 0 127 47.5t102 124.5l115 -185q-62 -113 -152.5 -171t-183.5 -58q-56 0 -113 22.5t-96 49t-89 49t-95 22.5q-37 0 -69.5 -12.5t-68 -44t-53 -50t-57.5 -65.5z" />
<glyph unicode="&#xa1;" horiz-adv-x="626" d="M72 -330l112 856h242l109 -856h-463zM92 666v393h420v-393h-420z" />
<glyph unicode="&#xa2;" horiz-adv-x="1183" d="M92 752q0 211 116 359t304 185v185h250v-191q153 -40 239 -160t91 -276h-324q-4 26 -11.5 50t-22.5 50.5t-42 42t-63 15.5q-79 0 -124.5 -65.5t-45.5 -190.5q0 -128 50 -201.5t128 -73.5q35 0 62 17.5t41.5 45t21.5 50t10 43.5h313q0 -145 -86 -260t-237 -154v-223h-250 v217q-187 37 -303.5 182t-116.5 353z" />
<glyph unicode="&#xa3;" horiz-adv-x="1392" d="M51 0v326h64q166 0 166 147q0 43 -19 211h-211v207h166l-10 199q-7 99 31.5 179t110 129.5t163.5 76t195 26.5q186 0 323.5 -86.5t208.5 -253.5l-344 -98q-32 75 -58 103t-67 28q-46 0 -72 -32.5t-26 -90.5q0 -46 20 -180h273v-207h-244q3 -126 -21 -199 q-14 -47 -37.5 -77t-80.5 -80h202q90 0 130.5 33.5t72.5 125.5l334 -65q-51 -211 -175.5 -316.5t-328.5 -105.5h-766z" />
<glyph unicode="&#xa4;" horiz-adv-x="1255" d="M51 342l148 145q-38 64 -56 123t-18 133q0 135 61 240q10 21 -4 35l-131 131l156 162l149 -150q129 78 256 78q135 0 256 -70q14 -7 23 2l117 119l155 -160l-129 -126q76 -124 76 -259q0 -145 -72 -251q-4 -7 0 -11l125 -123l-155 -159l-127 129q-127 -78 -258 -78 q-136 0 -248 65q-20 11 -35 -4l-133 -131zM371 745q0 -100 71 -172.5t174 -72.5q104 0 175 72.5t71 172.5q0 99 -71 172.5t-175 73.5q-102 0 -173.5 -73.5t-71.5 -172.5z" />
<glyph unicode="&#xa5;" horiz-adv-x="1437" d="M-31 1481h516l287 -516l281 516h415l-467 -750h250v-203h-299v-137h299v-201h-299v-190h-452v190h-299v201h299v137h-299v203h229z" />
<glyph unicode="&#xa6;" horiz-adv-x="569" d="M143 -330v848h283v-848h-283zM143 844v848h283v-848h-283z" />
<glyph unicode="&#xa7;" horiz-adv-x="1091" d="M41 70l238 114q25 -29 42.5 -45.5t48 -38t70 -31.5t88.5 -10q67 0 106.5 20t39.5 60q0 32 -27.5 56t-99.5 51l-139 51q-188 70 -268.5 147.5t-80.5 204.5q0 92 42 161.5t120 109.5q-74 50 -107.5 108t-33.5 131q0 149 119 245.5t321 96.5q165 0 290 -70t171 -169 l-238 -113q-29 30 -44.5 44.5t-45 37t-60 32t-65.5 9.5q-46 0 -73 -20t-27 -54q0 -44 76 -68l149 -55q188 -70 268 -147.5t80 -204.5q0 -174 -151 -270q92 -52 131 -112t39 -146q0 -166 -124 -265.5t-357 -99.5q-187 0 -319 70.5t-179 169.5zM373 709q0 -36 27 -57.5 t114 -53.5l84 -33q48 -6 72 25.5t16 79.5q-12 57 -139 104l-74 29q-100 -8 -100 -94z" />
<glyph unicode="&#xa8;" horiz-adv-x="925" d="M2 1186v336h399v-336h-399zM524 1186v336h400v-336h-400z" />
<glyph unicode="&#xa9;" horiz-adv-x="1726" d="M92 741q0 154 60 294.5t162 242.5t242.5 162.5t295.5 60.5t296 -60.5t243 -162.5t162.5 -242.5t60.5 -294.5q0 -156 -60.5 -297.5t-162.5 -242.5t-243 -161t-296 -60t-295.5 60t-242.5 161.5t-162 242.5t-60 297zM315 741q0 -257 145 -408t392 -151q245 0 392 151.5 t147 407.5q0 254 -147.5 408t-391.5 154q-246 0 -391.5 -153.5t-145.5 -408.5zM436 741q0 189 119.5 306.5t302.5 117.5q81 0 149.5 -27.5t113.5 -72t73.5 -95.5t38.5 -104l-268 -14q-15 121 -99 121q-121 0 -121 -228q0 -124 35.5 -177.5t104.5 -53.5q60 0 91.5 31.5 t65.5 99.5l189 -37q-5 -29 -19.5 -63.5t-45 -75t-71 -72.5t-103 -53.5t-134.5 -21.5q-184 0 -303 117t-119 302z" />
<glyph unicode="&#xaa;" horiz-adv-x="815" d="M51 1006q0 102 99.5 167.5t263.5 65.5h49v41q0 41 -23 56.5t-51 15.5q-77 0 -106 -76l-215 41q42 97 113 140.5t214 43.5q169 -1 236 -52t67 -153v-270q0 -114 9 -149l14 -50h-244l-14 58q-62 -39 -101.5 -54.5t-93.5 -15.5q-104 0 -160.5 52t-56.5 139zM293 1022 q0 -27 20 -43t56 -16q46 0 73 24q21 17 21 39v90h-41q-56 0 -92.5 -26t-36.5 -68z" />
<glyph unicode="&#xab;" horiz-adv-x="1105" d="M123 514l217 410h207l-131 -410l131 -393h-205zM537 514l219 410h207l-132 -410l132 -393h-205z" />
<glyph unicode="&#xac;" horiz-adv-x="1267" d="M113 604v283h1042v-606h-319v323h-723z" />
<glyph unicode="&#xad;" horiz-adv-x="839" d="M113 385v281h594v-281h-594z" />
<glyph unicode="&#xae;" horiz-adv-x="1157" d="M92 1024q0 198 139 337.5t338 139.5q97 0 184.5 -37.5t151.5 -101.5t101.5 -152.5t37.5 -185.5t-37.5 -185t-101.5 -151.5t-151.5 -101t-184.5 -37.5q-199 0 -338 138.5t-139 336.5zM248 1024q0 -153 86 -243.5t235 -90.5q146 0 233 91t87 243q0 153 -87 244.5t-233 91.5 q-148 0 -234.5 -91.5t-86.5 -244.5zM369 786v471h229q91 0 143 -34t52 -97q0 -43 -25.5 -76t-67.5 -51l95 -213h-158l-66 197h-59v-197h-143zM512 1077h84q21 0 34 12t13 31q0 21 -15.5 32t-37.5 11h-78v-86z" />
<glyph unicode="&#xaf;" horiz-adv-x="925" d="M43 1237v244h819v-244h-819z" />
<glyph unicode="&#xb0;" horiz-adv-x="991" d="M123 1348q0 158 102.5 261t259.5 103q156 0 259.5 -103t103.5 -261q0 -159 -103.5 -261t-259.5 -102q-157 0 -259.5 102t-102.5 261zM340 1346q2 -67 40 -108.5t103 -41.5q64 0 103 41.5t39 108.5q0 65 -39.5 106t-104.5 41q-64 0 -103.5 -41t-37.5 -106z" />
<glyph unicode="&#xb1;" horiz-adv-x="1267" d="M113 31v280h1042v-280h-1042zM113 795v282h381v381h282v-381h379v-282h-379v-379h-282v379h-381z" />
<glyph unicode="&#xb2;" horiz-adv-x="841" d="M41 1389q0 153 100.5 247.5t292.5 94.5q170 0 268.5 -81t98.5 -216q0 -66 -25.5 -118.5t-66.5 -85.5t-90.5 -59t-99.5 -44.5t-91 -37t-66.5 -42.5t-25.5 -54h459v-207h-740v168q0 67 26.5 121t69.5 90t94.5 65t103 51.5t94.5 44t69.5 48t26.5 58.5q0 42 -30 69t-81 27 q-125 0 -152 -139h-235z" />
<glyph unicode="&#xb3;" horiz-adv-x="854" d="M51 1094h236q23 -125 143 -125q70 0 110 27t40 71q0 39 -35 65t-94 27l-95 6v193l80 6q125 12 125 96q0 40 -38.5 61t-94.5 21q-64 0 -99 -27t-42 -98h-236q0 157 105.5 235.5t277.5 78.5q177 0 284 -63.5t107 -194.5q0 -72 -37.5 -121.5t-123.5 -77.5q76 -22 128 -74.5 t52 -142.5q0 -94 -59 -159.5t-150 -94.5t-205 -29q-187 0 -283 83t-96 237z" />
<glyph unicode="&#xb4;" horiz-adv-x="702" d="M35 1286l536 219l84 -241l-567 -136z" />
<glyph unicode="&#xb5;" horiz-adv-x="1271" d="M102 -338v1423h410v-616q0 -49 36 -79t95 -30q53 0 86.5 30t36.5 79v616h414l-9 -1085h-399v168q-41 -63 -119 -88q-69 -22 -141 -10v-408h-410z" />
<glyph unicode="&#xb6;" horiz-adv-x="1290" d="M51 1049q0 190 129 311t355 121h663v-217h-131v-1434h-236v1434h-133v-1434h-235v784q-82 10 -153 39.5t-130.5 80t-94 131.5t-34.5 184z" />
<glyph unicode="&#xb7;" horiz-adv-x="585" d="M92 567v357h371v-357h-371z" />
<glyph unicode="&#xb8;" horiz-adv-x="636" d="M37 -389l49 121q98 -54 174 -54q42 0 68 14.5t26 39.5q0 39 -41.5 58.5t-140.5 19.5q-17 0 -21 3.5t1 20.5l75 176h162l-43 -116q116 0 172.5 -51t56.5 -117q0 -77 -78.5 -126t-187.5 -49q-170 0 -272 60z" />
<glyph unicode="&#xb9;" horiz-adv-x="651" d="M10 1436v133q112 0 173.5 37.5t72.5 103.5h160v-932h-252v658h-154z" />
<glyph unicode="&#xba;" horiz-adv-x="800" d="M51 1155q0 153 99 249.5t249 96.5q156 0 253.5 -97t97.5 -249q0 -149 -98.5 -244.5t-252.5 -95.5t-251 95.5t-97 244.5zM303 1159q0 -96 23 -140t73 -44q51 0 75 44t24 140q0 98 -24 142.5t-75 44.5q-50 0 -73 -44.5t-23 -142.5z" />
<glyph unicode="&#xbb;" horiz-adv-x="1105" d="M123 121l131 393l-131 410h207l217 -410l-219 -393h-205zM537 121l133 393l-133 410h208l218 -410l-220 -393h-206z" />
<glyph unicode="&#xbc;" horiz-adv-x="1978" d="M10 1223v133q112 0 173.5 37.5t72.5 103.5h160v-932h-252v658h-154zM303 -4l997 1501h216l-996 -1505zM1126 178v195l416 559h242v-549h133v-205h-133v-178h-240l2 178h-420zM1354 383h194v258z" />
<glyph unicode="&#xbd;" horiz-adv-x="1988" d="M10 1223v133q112 0 173.5 37.5t72.5 103.5h160v-932h-252v658h-154zM303 -4l997 1501h216l-996 -1505zM1219 602q0 153 100.5 247.5t292.5 94.5q170 0 268 -81t98 -216q0 -66 -25.5 -118.5t-66.5 -85.5t-90.5 -58.5t-99.5 -44.5t-91 -37t-66.5 -42t-25.5 -54h459v-207 h-739v168q0 67 26.5 121t69 89.5t94 64.5t103.5 51.5t94.5 44t69 48t26.5 58.5q0 42 -29.5 69t-80.5 27q-125 0 -152 -139h-235z" />
<glyph unicode="&#xbe;" horiz-adv-x="2181" d="M51 879h236q23 -125 143 -125q70 0 110 27t40 71q0 39 -35 65t-94 27l-95 6v193l80 6q125 13 125 96q0 40 -38.5 61t-94.5 21q-64 0 -99 -27t-42 -98h-236q0 157 105.5 235.5t277.5 78.5q177 0 284 -64t107 -195q0 -72 -37.5 -121t-123.5 -77q76 -22 128 -74.5t52 -142.5 q0 -94 -59 -159.5t-150 -94.5t-205 -29q-187 0 -283 83t-96 237zM506 -4l997 1501h215l-995 -1505zM1329 178v195l416 559h242v-549h133v-205h-133v-178h-240l2 178h-420zM1556 383h195v258z" />
<glyph unicode="&#xbf;" horiz-adv-x="1161" d="M72 -6q0 66 21 120.5t54.5 92t74.5 69t81.5 59.5t74 56.5t54.5 66.5t21 83h313q0 -72 -22.5 -133.5t-56.5 -102.5t-73.5 -80.5t-73.5 -69t-56.5 -66t-22.5 -73.5q0 -41 39 -68.5t92 -27.5q68 0 126.5 46.5t90.5 127.5l332 -69q-66 -184 -206.5 -279.5t-346.5 -95.5 q-249 0 -382.5 99t-133.5 245zM401 666v393h420v-393h-420z" />
<glyph unicode="&#xc0;" d="M20 0l525 1481h407l525 -1481h-394l-98 287h-467l-100 -287h-398zM436 1686l86 241l535 -219l-53 -158zM602 627h293l-145 473z" />
<glyph unicode="&#xc1;" d="M20 0l525 1481h407l525 -1481h-394l-98 287h-467l-100 -287h-398zM442 1708l537 219l84 -241l-567 -136zM602 627h293l-145 473z" />
<glyph unicode="&#xc2;" d="M20 0l525 1481h407l525 -1481h-394l-98 287h-467l-100 -287h-398zM340 1610l283 313h270l274 -313h-284l-127 168l-146 -168h-270zM602 627h293l-145 473z" />
<glyph unicode="&#xc3;" d="M20 0l525 1481h407l525 -1481h-394l-98 287h-467l-100 -287h-398zM362 1808q46 52 97.5 80.5t124.5 28.5q68 0 178 -34t153 -34q93 0 195 84l41 -211q-40 -35 -102.5 -59.5t-130.5 -24.5q-60 0 -163.5 31t-160.5 31q-52 0 -90 -16t-86 -58zM602 627h293l-145 473z" />
<glyph unicode="&#xc4;" d="M20 0l525 1481h407l525 -1481h-394l-98 287h-467l-100 -287h-398zM285 1602v335h399v-335h-399zM602 627h293l-145 473zM807 1602v335h399v-335h-399z" />
<glyph unicode="&#xc5;" d="M20 0l525 1481h407l525 -1481h-394l-98 287h-467l-100 -287h-398zM516 1804q0 94 68.5 160t165.5 66t165 -67.5t68 -162.5q0 -98 -68 -165.5t-165 -67.5q-98 0 -166 68.5t-68 168.5zM602 627h293l-145 473zM649 1798q0 -38 29.5 -68t69.5 -30q39 0 66.5 29.5t27.5 68.5 q0 40 -27 67t-67 27t-69.5 -27.5t-29.5 -66.5z" />
<glyph unicode="&#xc6;" horiz-adv-x="2273" d="M0 0l768 1481h1374l-2 -326h-696v-250h436v-321h-436v-256h717v-328h-1172v287h-450l-142 -287h-397zM684 627h305v604z" />
<glyph unicode="&#xc7;" horiz-adv-x="1525" d="M92 760q0 338 192.5 539.5t516.5 201.5q263 0 440.5 -151.5t202.5 -391.5h-416q-18 105 -79.5 164.5t-162.5 59.5q-122 0 -190 -98.5t-68 -329.5q0 -236 69 -345.5t189 -109.5q98 0 161 72t81 182h416q-13 -94 -34.5 -168.5t-63.5 -148t-101.5 -124.5t-152 -86.5 t-211.5 -43.5l-33 -88q116 0 172.5 -51t56.5 -117q0 -77 -78.5 -126t-187.5 -49q-170 0 -272 60l49 121q98 -54 174 -54q42 0 68 14.5t26 39.5q0 39 -41.5 58.5t-140.5 19.5q-17 0 -21.5 3.5t0.5 20.5l64 150q-284 31 -454.5 245t-170.5 531z" />
<glyph unicode="&#xc8;" horiz-adv-x="1351" d="M143 0v1481h1094l-2 -330h-690v-246h577v-321h-579v-252h696v-332h-1096zM377 1686l86 241l534 -219l-53 -158z" />
<glyph unicode="&#xc9;" horiz-adv-x="1351" d="M143 0v1481h1094l-2 -330h-690v-246h577v-321h-579v-252h696v-332h-1096zM383 1708l537 219l84 -241l-568 -136z" />
<glyph unicode="&#xca;" horiz-adv-x="1351" d="M143 0v1481h1094l-2 -330h-690v-246h577v-321h-579v-252h696v-332h-1096zM272 1610l283 313h270l275 -313h-285l-127 168l-145 -168h-271z" />
<glyph unicode="&#xcb;" horiz-adv-x="1351" d="M143 0v1481h1094l-2 -330h-690v-246h577v-321h-579v-252h696v-332h-1096zM225 1602v335h400v-335h-400zM748 1602v335h399v-335h-399z" />
<glyph unicode="&#xcc;" horiz-adv-x="686" d="M31 1686l86 241l534 -219l-53 -158zM143 0v1481h400v-1481h-400z" />
<glyph unicode="&#xcd;" horiz-adv-x="686" d="M37 1708l536 219l84 -241l-567 -136zM143 0v1481h400v-1481h-400z" />
<glyph unicode="&#xce;" horiz-adv-x="686" d="M-74 1610l283 313h270l275 -313h-285l-127 168l-145 -168h-271zM143 0v1481h400v-1481h-400z" />
<glyph unicode="&#xcf;" horiz-adv-x="686" d="M-121 1602v335h400v-335h-400zM143 0v1481h400v-1481h-400zM401 1602v335h400v-335h-400z" />
<glyph unicode="&#xd0;" horiz-adv-x="1609" d="M72 586v280h159v615q469 0 533 -2q197 -7 345 -63t239.5 -154t136.5 -227.5t45 -289.5q0 -164 -47 -299t-139.5 -235t-241 -155.5t-340.5 -55.5h-531v586h-159zM631 313h143q48 0 94 14.5t91 48t79 82.5t55 125t21 169q0 200 -92 307.5t-248 107.5h-143v-301h256v-280 h-256v-273z" />
<glyph unicode="&#xd1;" horiz-adv-x="1665" d="M143 0v1481h402l577 -826v826h400v-1481h-361l-618 883v-883h-400zM444 1808q46 52 97.5 80.5t124.5 28.5q68 0 178 -34t153 -34q93 0 195 84l41 -211q-40 -35 -103 -59.5t-131 -24.5q-60 0 -163 31t-160 31q-52 0 -90 -16t-86 -58z" />
<glyph unicode="&#xd2;" horiz-adv-x="1617" d="M92 737q0 229 89.5 402.5t252.5 267.5t377 94q323 0 519 -208.5t196 -555.5q0 -228 -87.5 -399.5t-249.5 -264.5t-378 -93q-330 0 -524.5 205.5t-194.5 551.5zM496 1686l86 241l534 -219l-53 -158zM526 731q0 -227 76.5 -329.5t208.5 -102.5q283 0 283 432 q0 121 -21 209.5t-59.5 140.5t-88.5 76.5t-114 24.5q-132 0 -208.5 -108t-76.5 -343z" />
<glyph unicode="&#xd3;" horiz-adv-x="1617" d="M92 737q0 229 89.5 402.5t252.5 267.5t377 94q323 0 519 -208.5t196 -555.5q0 -228 -87.5 -399.5t-249.5 -264.5t-378 -93q-330 0 -524.5 205.5t-194.5 551.5zM502 1708l536 219l84 -241l-567 -136zM526 731q0 -227 76.5 -329.5t208.5 -102.5q283 0 283 432 q0 121 -21 209.5t-59.5 140.5t-88.5 76.5t-114 24.5q-132 0 -208.5 -108t-76.5 -343z" />
<glyph unicode="&#xd4;" horiz-adv-x="1617" d="M92 737q0 229 89.5 402.5t252.5 267.5t377 94q323 0 519 -208.5t196 -555.5q0 -228 -87.5 -399.5t-249.5 -264.5t-378 -93q-330 0 -524.5 205.5t-194.5 551.5zM391 1610l283 313h270l275 -313h-285l-127 168l-145 -168h-271zM526 731q0 -227 76.5 -329.5t208.5 -102.5 q283 0 283 432q0 121 -21 209.5t-59.5 140.5t-88.5 76.5t-114 24.5q-132 0 -208.5 -108t-76.5 -343z" />
<glyph unicode="&#xd5;" horiz-adv-x="1617" d="M92 737q0 229 89.5 402.5t252.5 267.5t377 94q323 0 519 -208.5t196 -555.5q0 -228 -87.5 -399.5t-249.5 -264.5t-378 -93q-330 0 -524.5 205.5t-194.5 551.5zM422 1808q47 52 97.5 80.5t123.5 28.5q68 0 178.5 -34t153.5 -34q92 0 194 84l41 -211q-40 -35 -102.5 -59.5 t-130.5 -24.5q-60 0 -163.5 31t-160.5 31q-52 0 -90 -16t-86 -58zM526 731q0 -227 76.5 -329.5t208.5 -102.5q283 0 283 432q0 121 -21 209.5t-59.5 140.5t-88.5 76.5t-114 24.5q-132 0 -208.5 -108t-76.5 -343z" />
<glyph unicode="&#xd6;" horiz-adv-x="1617" d="M92 737q0 229 89.5 402.5t252.5 267.5t377 94q323 0 519 -208.5t196 -555.5q0 -228 -87.5 -399.5t-249.5 -264.5t-378 -93q-330 0 -524.5 205.5t-194.5 551.5zM344 1602v335h399v-335h-399zM526 731q0 -227 76.5 -329.5t208.5 -102.5q283 0 283 432q0 121 -21 209.5 t-59.5 140.5t-88.5 76.5t-114 24.5q-132 0 -208.5 -108t-76.5 -343zM866 1602v335h400v-335h-400z" />
<glyph unicode="&#xd7;" horiz-adv-x="1249" d="M113 1057l196 200l314 -313l313 313l201 -200l-314 -312l310 -309l-201 -200l-309 309l-312 -309l-196 200l309 309z" />
<glyph unicode="&#xd8;" horiz-adv-x="1636" d="M31 137l168 162q-109 185 -109 438q0 347 196.5 555.5t522.5 208.5q279 0 463 -155l168 161l155 -164l-178 -176q107 -179 107 -430q0 -228 -87.5 -399.5t-249.5 -264.5t-378 -93q-271 0 -459 145l-160 -154zM565 655l432 422q-56 117 -188 117q-96 0 -150.5 -67 t-76.5 -212q-17 -102 -17 -260zM621 389q56 -98 188 -98q89 0 141.5 53t75.5 170q23 109 23 295z" />
<glyph unicode="&#xd9;" horiz-adv-x="1533" d="M143 612v869h404v-885q0 -144 66 -213.5t169 -69.5q102 0 169 69.5t67 213.5v885h403v-869q0 -146 -33.5 -258.5t-106.5 -198t-198.5 -130.5t-300.5 -45t-300.5 45t-198.5 130.5t-106.5 198t-33.5 258.5zM469 1686l86 241l535 -219l-54 -158z" />
<glyph unicode="&#xda;" horiz-adv-x="1533" d="M143 612v869h404v-885q0 -144 66 -213.5t169 -69.5q102 0 169 69.5t67 213.5v885h403v-869q0 -146 -33.5 -258.5t-106.5 -198t-198.5 -130.5t-300.5 -45t-300.5 45t-198.5 130.5t-106.5 198t-33.5 258.5zM475 1708l537 219l84 -241l-568 -136z" />
<glyph unicode="&#xdb;" horiz-adv-x="1533" d="M143 612v869h404v-885q0 -144 66 -213.5t169 -69.5q102 0 169 69.5t67 213.5v885h403v-869q0 -146 -33.5 -258.5t-106.5 -198t-198.5 -130.5t-300.5 -45t-300.5 45t-198.5 130.5t-106.5 198t-33.5 258.5zM365 1610l282 313h271l274 -313h-285l-127 168l-145 -168h-270z " />
<glyph unicode="&#xdc;" horiz-adv-x="1533" d="M143 612v869h404v-885q0 -144 66 -213.5t169 -69.5q102 0 169 69.5t67 213.5v885h403v-869q0 -146 -33.5 -258.5t-106.5 -198t-198.5 -130.5t-300.5 -45t-300.5 45t-198.5 130.5t-106.5 198t-33.5 258.5zM317 1602v335h400v-335h-400zM840 1602v335h399v-335h-399z" />
<glyph unicode="&#xdd;" horiz-adv-x="1468" d="M10 1481h430l293 -527l291 527h434l-526 -865v-616h-400v616zM477 1708l537 219l84 -241l-568 -136z" />
<glyph unicode="&#xde;" horiz-adv-x="1531" d="M143 0v1481h455v-267h270q168 0 302 -51t217 -159.5t83 -260.5q0 -213 -150.5 -336.5t-397.5 -123.5h-324v-283h-455zM598 602h254q70 0 113 43t43 105q0 66 -48 105.5t-118 39.5h-244v-293z" />
<glyph unicode="&#xdf;" horiz-adv-x="1417" d="M61 721v270h109q3 76 21 143.5t59.5 132.5t103.5 111t159.5 74.5t221.5 28.5q223 0 346 -82t123 -240q0 -105 -65 -176.5t-219 -134.5q-11 -4 -11 -12q0 -11 15 -17q48 -22 74 -34t69.5 -34t68 -37.5t59.5 -40t55 -47t43 -53t35 -62t20 -70.5t8 -83q0 -183 -122.5 -280.5 t-338.5 -97.5q-161 0 -268 65l108 238q26 -18 40 -26.5t46.5 -20t65.5 -11.5q50 0 83.5 22.5t33.5 67.5q0 39 -32.5 62.5t-121.5 62.5q-221 99 -221 295q0 122 102 228l33 33t34 35.5t24 30t20.5 37t5.5 36.5q0 42 -33.5 70t-93.5 28q-75 0 -116.5 -46.5t-41.5 -117.5v-1069 h-391v721h-111z" />
<glyph unicode="&#xe0;" horiz-adv-x="1171" d="M51 317q0 175 140 269t423 94h82v45q0 51 -28 74t-88 22q-124 -5 -164 -92h-324q4 91 45 159.5t111 109.5t157.5 61t192.5 20q135 0 230 -23.5t148.5 -68.5t77 -102.5t23.5 -134.5v-750h-329l-35 168q-46 -104 -115 -146t-180 -42q-158 0 -262.5 89.5t-104.5 247.5z M285 1264l86 241l534 -219l-53 -158zM426 358q0 -58 38.5 -92.5t92.5 -34.5q58 0 97.5 37.5t41.5 89.5v134h-63q-27 0 -59.5 -6.5t-67 -21t-57.5 -42t-23 -64.5z" />
<glyph unicode="&#xe1;" horiz-adv-x="1171" d="M51 317q0 175 140 269t423 94h82v45q0 51 -28 74t-88 22q-124 -5 -164 -92h-324q4 91 45 159.5t111 109.5t157.5 61t192.5 20q135 0 230 -23.5t148.5 -68.5t77 -102.5t23.5 -134.5v-750h-329l-35 168q-46 -104 -115 -146t-180 -42q-158 0 -262.5 89.5t-104.5 247.5z M291 1286l536 219l84 -241l-567 -136zM426 358q0 -58 38.5 -92.5t92.5 -34.5q58 0 97.5 37.5t41.5 89.5v134h-63q-27 0 -59.5 -6.5t-67 -21t-57.5 -42t-23 -64.5z" />
<glyph unicode="&#xe2;" horiz-adv-x="1171" d="M51 317q0 175 140 269t423 94h82v45q0 51 -28 74t-88 22q-124 -5 -164 -92h-324q4 91 45 159.5t111 109.5t157.5 61t192.5 20q135 0 230 -23.5t148.5 -68.5t77 -102.5t23.5 -134.5v-750h-329l-35 168q-46 -104 -115 -146t-180 -42q-158 0 -262.5 89.5t-104.5 247.5z M180 1188l283 313h270l275 -313h-285l-127 168l-145 -168h-271zM426 358q0 -58 38.5 -92.5t92.5 -34.5q58 0 97.5 37.5t41.5 89.5v134h-63q-27 0 -59.5 -6.5t-67 -21t-57.5 -42t-23 -64.5z" />
<glyph unicode="&#xe3;" horiz-adv-x="1171" d="M51 317q0 175 140 269t423 94h82v45q0 51 -28 74t-88 22q-124 -5 -164 -92h-324q4 91 45 159.5t111 109.5t157.5 61t192.5 20q135 0 230 -23.5t148.5 -68.5t77 -102.5t23.5 -134.5v-750h-329l-35 168q-46 -104 -115 -146t-180 -42q-158 0 -262.5 89.5t-104.5 247.5z M211 1386q47 52 97.5 80.5t123.5 28.5q68 0 178.5 -34t153.5 -34q92 0 194 84l41 -211q-40 -35 -102.5 -59t-130.5 -24q-60 0 -163.5 30.5t-160.5 30.5q-52 0 -90 -16t-86 -58zM426 358q0 -58 38.5 -92.5t92.5 -34.5q58 0 97.5 37.5t41.5 89.5v134h-63q-27 0 -59.5 -6.5 t-67 -21t-57.5 -42t-23 -64.5z" />
<glyph unicode="&#xe4;" horiz-adv-x="1171" d="M51 317q0 175 140 269t423 94h82v45q0 51 -28 74t-88 22q-124 -5 -164 -92h-324q4 91 45 159.5t111 109.5t157.5 61t192.5 20q135 0 230 -23.5t148.5 -68.5t77 -102.5t23.5 -134.5v-750h-329l-35 168q-46 -104 -115 -146t-180 -42q-158 0 -262.5 89.5t-104.5 247.5z M133 1180v336h399v-336h-399zM426 358q0 -58 38.5 -92.5t92.5 -34.5q58 0 97.5 37.5t41.5 89.5v134h-63q-27 0 -59.5 -6.5t-67 -21t-57.5 -42t-23 -64.5zM655 1180v336h400v-336h-400z" />
<glyph unicode="&#xe5;" horiz-adv-x="1171" d="M51 317q0 175 140 269t423 94h82v45q0 51 -28 74t-88 22q-124 -5 -164 -92h-324q4 91 45 159.5t111 109.5t157.5 61t192.5 20q135 0 230 -23.5t148.5 -68.5t77 -102.5t23.5 -134.5v-750h-329l-35 168q-46 -104 -115 -146t-180 -42q-158 0 -262.5 89.5t-104.5 247.5z M365 1382q0 94 68 160t165 66t165 -67.5t68 -162.5q0 -98 -68 -165.5t-165 -67.5q-98 0 -165.5 68.5t-67.5 168.5zM426 358q0 -58 38.5 -92.5t92.5 -34.5q58 0 97.5 37.5t41.5 89.5v134h-63q-27 0 -59.5 -6.5t-67 -21t-57.5 -42t-23 -64.5zM498 1376q0 -39 29.5 -68.5 t68.5 -29.5t66.5 29.5t27.5 68.5q0 40 -27 67t-67 27t-69 -27.5t-29 -66.5z" />
<glyph unicode="&#xe6;" horiz-adv-x="1855" d="M51 285q0 165 147 264.5t429 112.5l82 4v59q0 115 -117 115q-124 0 -170 -123l-344 67q32 76 71 128t99.5 91t147 57.5t204.5 18.5q253 -3 373 -80q135 80 289 80q240 0 391 -166.5t151 -455.5h-686q0 -104 57 -158.5t148 -54.5q57 0 110.5 28t122.5 97l242 -99 q-110 -166 -228.5 -228t-299.5 -62q-124 0 -232 42.5t-184 118.5q-11 11 -20 0q-91 -87 -194 -124t-243 -37q-165 0 -255.5 83.5t-90.5 221.5zM440 311q0 -44 31 -70t88 -26q61 0 105.5 28.5t44.5 75.5v150l-64 -4q-42 -3 -87 -20t-81.5 -52.5t-36.5 -81.5zM1124 666l293 -2 q0 35 -12.5 74t-45.5 72.5t-79 33.5q-67 0 -112 -45.5t-44 -132.5z" />
<glyph unicode="&#xe7;" horiz-adv-x="1101" d="M51 524q0 244 151.5 399.5t383.5 155.5q109 0 197.5 -37t145.5 -100t88.5 -143.5t33.5 -171.5h-324q-4 26 -11.5 50t-22.5 50t-42 41.5t-63 15.5q-79 0 -124.5 -65.5t-45.5 -190.5q0 -128 49.5 -201t128.5 -73q35 0 62 17.5t41.5 45t21.5 50t10 43.5h313 q0 -160 -102 -280t-278 -144l-33 -92q116 0 172.5 -51t56.5 -117q0 -77 -78.5 -126t-187.5 -49q-170 0 -272 60l49 121q98 -54 174 -54q42 0 68 14.5t26 39.5q0 39 -41.5 58.5t-140.5 19.5q-17 0 -21.5 3.5t0.5 20.5l66 152q-198 28 -324.5 175t-126.5 363z" />
<glyph unicode="&#xe8;" horiz-adv-x="1165" d="M51 516q0 114 37 216t104.5 179t170.5 122.5t227 45.5q168 0 287.5 -73t176 -195t56.5 -281v-92h-668q-1 -90 42 -135t112 -45q61 0 102 22t64 80h352q-24 -170 -173.5 -275t-334.5 -105q-248 0 -401.5 147.5t-153.5 388.5zM279 1264l86 241l534 -219l-53 -158zM440 662 h303q0 63 -40.5 106t-112.5 43q-61 0 -105.5 -44.5t-44.5 -104.5z" />
<glyph unicode="&#xe9;" horiz-adv-x="1165" d="M51 516q0 114 37 216t104.5 179t170.5 122.5t227 45.5q168 0 287.5 -73t176 -195t56.5 -281v-92h-668q-1 -90 42 -135t112 -45q61 0 102 22t64 80h352q-24 -170 -173.5 -275t-334.5 -105q-248 0 -401.5 147.5t-153.5 388.5zM285 1286l536 219l84 -241l-567 -136zM440 662 h303q0 63 -40.5 106t-112.5 43q-61 0 -105.5 -44.5t-44.5 -104.5z" />
<glyph unicode="&#xea;" horiz-adv-x="1165" d="M51 516q0 114 37 216t104.5 179t170.5 122.5t227 45.5q168 0 287.5 -73t176 -195t56.5 -281v-92h-668q-1 -90 42 -135t112 -45q61 0 102 22t64 80h352q-24 -170 -173.5 -275t-334.5 -105q-248 0 -401.5 147.5t-153.5 388.5zM174 1188l283 313h270l274 -313h-284l-127 168 l-146 -168h-270zM440 662h303q0 63 -40.5 106t-112.5 43q-61 0 -105.5 -44.5t-44.5 -104.5z" />
<glyph unicode="&#xeb;" horiz-adv-x="1165" d="M51 516q0 114 37 216t104.5 179t170.5 122.5t227 45.5q168 0 287.5 -73t176 -195t56.5 -281v-92h-668q-1 -90 42 -135t112 -45q61 0 102 22t64 80h352q-24 -170 -173.5 -275t-334.5 -105q-248 0 -401.5 147.5t-153.5 388.5zM127 1180v336h399v-336h-399zM440 662h303 q0 63 -40.5 106t-112.5 43q-61 0 -105.5 -44.5t-44.5 -104.5zM649 1180v336h400v-336h-400z" />
<glyph unicode="&#xec;" horiz-adv-x="593" d="M-4 1264l86 241l534 -219l-53 -158zM102 0v1059h400v-1059h-400z" />
<glyph unicode="&#xed;" horiz-adv-x="593" d="M2 1286l537 219l84 -241l-568 -136zM102 0v1059h400v-1059h-400z" />
<glyph unicode="&#xee;" horiz-adv-x="593" d="M-109 1188l283 313h270l275 -313h-285l-127 168l-145 -168h-271zM102 0v1059h400v-1059h-400z" />
<glyph unicode="&#xef;" horiz-adv-x="593" d="M-156 1180v336h400v-336h-400zM102 0v1059h400v-1059h-400zM367 1180v336h399v-336h-399z" />
<glyph unicode="&#xf0;" horiz-adv-x="1216" d="M51 504q0 154 73.5 276.5t200.5 190t283 67.5q11 0 4 11q-50 68 -131 129l-221 -123l-67 108l165 90q-84 44 -190 80l205 170q161 -39 268 -92l176 98l62 -110l-111 -64q187 -131 292 -334t105 -438q0 -268 -153 -425.5t-406 -157.5q-243 0 -399 149t-156 375zM455 512 q0 -141 37.5 -208.5t115.5 -67.5q81 0 117.5 67.5t36.5 208.5q0 143 -36.5 211t-117.5 68q-153 0 -153 -279z" />
<glyph unicode="&#xf1;" horiz-adv-x="1245" d="M102 0v1059h396v-127q32 33 40 41t39 32.5t53.5 32.5t63 16.5t88.5 8.5q144 0 257.5 -101.5t113.5 -246.5v-715h-399v662q0 42 -38 69t-85 27q-48 0 -88.5 -27t-40.5 -69v-662h-400zM240 1386q47 52 97.5 80.5t123.5 28.5q68 0 178.5 -34t153.5 -34q92 0 194 84l41 -211 q-40 -35 -102.5 -59t-130.5 -24q-60 0 -163.5 30.5t-160.5 30.5q-52 0 -90 -16t-86 -58z" />
<glyph unicode="&#xf2;" horiz-adv-x="1177" d="M51 522q0 249 150.5 403t388.5 154q245 0 390.5 -155.5t145.5 -401.5q0 -239 -147 -390.5t-391 -151.5t-390.5 151t-146.5 391zM276 1264l86 241l535 -219l-53 -158zM438 537q0 -38 3.5 -72t13.5 -71.5t26 -64t44 -44t65 -17.5q45 0 76.5 25t46 68t20.5 85t6 91 q0 258 -149 258q-152 0 -152 -258z" />
<glyph unicode="&#xf3;" horiz-adv-x="1177" d="M51 522q0 249 150.5 403t388.5 154q245 0 390.5 -155.5t145.5 -401.5q0 -239 -147 -390.5t-391 -151.5t-390.5 151t-146.5 391zM283 1286l536 219l84 -241l-567 -136zM438 537q0 -38 3.5 -72t13.5 -71.5t26 -64t44 -44t65 -17.5q45 0 76.5 25t46 68t20.5 85t6 91 q0 258 -149 258q-152 0 -152 -258z" />
<glyph unicode="&#xf4;" horiz-adv-x="1177" d="M51 522q0 249 150.5 403t388.5 154q245 0 390.5 -155.5t145.5 -401.5q0 -239 -147 -390.5t-391 -151.5t-390.5 151t-146.5 391zM172 1188l283 313h270l274 -313h-284l-127 168l-146 -168h-270zM438 537q0 -38 3.5 -72t13.5 -71.5t26 -64t44 -44t65 -17.5q45 0 76.5 25 t46 68t20.5 85t6 91q0 258 -149 258q-152 0 -152 -258z" />
<glyph unicode="&#xf5;" horiz-adv-x="1177" d="M51 522q0 249 150.5 403t388.5 154q245 0 390.5 -155.5t145.5 -401.5q0 -239 -147 -390.5t-391 -151.5t-390.5 151t-146.5 391zM203 1386q47 52 97.5 80.5t123.5 28.5q68 0 178.5 -34t153.5 -34q92 0 194 84l41 -211q-40 -35 -102.5 -59t-130.5 -24q-60 0 -163.5 30.5 t-160.5 30.5q-52 0 -90 -16t-86 -58zM438 537q0 -38 3.5 -72t13.5 -71.5t26 -64t44 -44t65 -17.5q45 0 76.5 25t46 68t20.5 85t6 91q0 258 -149 258q-152 0 -152 -258z" />
<glyph unicode="&#xf6;" horiz-adv-x="1177" d="M51 522q0 249 150.5 403t388.5 154q245 0 390.5 -155.5t145.5 -401.5q0 -239 -147 -390.5t-391 -151.5t-390.5 151t-146.5 391zM125 1180v336h399v-336h-399zM438 537q0 -38 3.5 -72t13.5 -71.5t26 -64t44 -44t65 -17.5q45 0 76.5 25t46 68t20.5 85t6 91q0 258 -149 258 q-152 0 -152 -258zM647 1180v336h400v-336h-400z" />
<glyph unicode="&#xf7;" horiz-adv-x="1267" d="M113 604v283h1042v-283h-1042zM446 121v364h379v-364h-379zM446 1006v364h379v-364h-379z" />
<glyph unicode="&#xf8;" horiz-adv-x="1300" d="M61 109l138 127q-70 128 -70 286q0 249 150.5 403t388.5 154q196 0 329 -102l105 98l117 -127l-105 -96q90 -137 90 -330q0 -239 -147 -390.5t-391 -151.5q-214 0 -359 120l-127 -118zM516 530l244 228q-37 37 -92 37q-152 0 -152 -258v-7zM557 332q40 -64 111 -64 q45 0 76.5 25t46 68t20.5 85t6 91v36z" />
<glyph unicode="&#xf9;" horiz-adv-x="1245" d="M102 313v746h400v-690q0 -48 32.5 -78.5t90.5 -30.5t91.5 31t33.5 78v690h403l-8 -1059h-295l-47 217q-44 -237 -309 -237q-66 0 -134 22.5t-126 63.5t-95 106t-37 141zM313 1264l86 241l535 -219l-53 -158z" />
<glyph unicode="&#xfa;" horiz-adv-x="1245" d="M102 313v746h400v-690q0 -48 32.5 -78.5t90.5 -30.5t91.5 31t33.5 78v690h403l-8 -1059h-295l-47 217q-44 -237 -309 -237q-66 0 -134 22.5t-126 63.5t-95 106t-37 141zM319 1286l537 219l84 -241l-567 -136z" />
<glyph unicode="&#xfb;" horiz-adv-x="1245" d="M102 313v746h400v-690q0 -48 32.5 -78.5t90.5 -30.5t91.5 31t33.5 78v690h403l-8 -1059h-295l-47 217q-44 -237 -309 -237q-66 0 -134 22.5t-126 63.5t-95 106t-37 141zM209 1188l283 313h270l274 -313h-284l-127 168l-146 -168h-270z" />
<glyph unicode="&#xfc;" horiz-adv-x="1245" d="M102 313v746h400v-690q0 -48 32.5 -78.5t90.5 -30.5t91.5 31t33.5 78v690h403l-8 -1059h-295l-47 217q-44 -237 -309 -237q-66 0 -134 22.5t-126 63.5t-95 106t-37 141zM162 1180v336h399v-336h-399zM684 1180v336h399v-336h-399z" />
<glyph unicode="&#xfd;" horiz-adv-x="1210" d="M10 1059h391l201 -576l209 576h389l-414 -998q-40 -98 -83 -169.5t-85 -115.5t-91 -69.5t-96 -35t-105 -9.5q-73 0 -131 11t-79 23l-22 11v252l103 -6q194 -15 220 85q1 2 1 3l4 20zM346 1286l537 219l84 -241l-568 -136z" />
<glyph unicode="&#xfe;" horiz-adv-x="1255" d="M102 -330v1811h402v-545q67 72 138.5 107.5t170.5 35.5q175 0 283 -138.5t108 -408.5q0 -147 -31.5 -255.5t-88 -172t-127.5 -94t-158 -30.5q-149 0 -256 102q-25 23 -33 21.5t-8 -31.5v-402h-400zM502 301q56 -80 139 -80q53 0 86.5 27t53.5 100t20 197 q0 166 -38.5 229.5t-121.5 63.5q-58 0 -98.5 -33t-40.5 -80v-424z" />
<glyph unicode="&#xff;" horiz-adv-x="1210" d="M10 1059h391l201 -576l209 576h389l-414 -998q-40 -98 -83 -169.5t-85 -115.5t-91 -69.5t-96 -35t-105 -9.5q-73 0 -131 11t-79 23l-22 11v252l103 -6q194 -15 220 85q1 2 1 3l4 20zM188 1180v336h400v-336h-400zM711 1180v336h399v-336h-399z" />
<glyph unicode="&#x152;" horiz-adv-x="2332" d="M92 737q0 350 204.5 557t561.5 207q158 0 258 -20h1088l-2 -326h-699v-250h439v-321h-439v-256h717v-328h-1104q-109 -20 -280 -20q-347 0 -545.5 204.5t-198.5 552.5zM567 731q0 -240 55.5 -340t188.5 -100q131 0 185.5 100.5t54.5 339.5q0 247 -56 355t-184 108 q-130 0 -187 -107.5t-57 -355.5z" />
<glyph unicode="&#x153;" horiz-adv-x="1900" d="M51 522q0 164 73.5 291.5t200 196.5t283.5 69q189 0 334 -98q15 -11 25.5 -11t25.5 11q137 98 314 98q240 0 391 -166.5t151 -455.5h-688q0 -104 57.5 -158.5t149.5 -54.5q56 0 109 28t122 97l242 -99q-109 -166 -227 -228t-299 -62q-192 0 -338 100q-16 11 -35 -2 q-148 -98 -336 -98q-244 0 -399.5 152t-155.5 390zM455 530q0 -154 37 -224t116 -70q81 0 117.5 70t36.5 224q0 159 -36 230t-118 71q-79 0 -116 -72t-37 -229zM1167 666l295 -2q0 35 -13 74t-46.5 72.5t-79.5 33.5q-67 0 -112 -45.5t-44 -132.5z" />
<glyph unicode="&#x178;" horiz-adv-x="1468" d="M10 1481h430l293 -527l291 527h434l-526 -865v-616h-400v616zM319 1602v335h400v-335h-400zM842 1602v335h399v-335h-399z" />
<glyph unicode="&#x2c6;" horiz-adv-x="876" d="M25 1188l282 313h271l274 -313h-285l-127 168l-145 -168h-270z" />
<glyph unicode="&#x2dc;" horiz-adv-x="983" d="M92 1386q47 52 97.5 80.5t123.5 28.5q68 0 178.5 -34t153.5 -34q93 0 195 84l41 -211q-40 -35 -103 -59t-131 -24q-60 0 -163 30.5t-160 30.5q-52 0 -90.5 -16.5t-86.5 -57.5z" />
<glyph unicode="&#x2000;" horiz-adv-x="1015" />
<glyph unicode="&#x2001;" horiz-adv-x="2030" />
<glyph unicode="&#x2002;" horiz-adv-x="1015" />
<glyph unicode="&#x2003;" horiz-adv-x="2030" />
<glyph unicode="&#x2004;" horiz-adv-x="676" />
<glyph unicode="&#x2005;" horiz-adv-x="507" />
<glyph unicode="&#x2006;" horiz-adv-x="338" />
<glyph unicode="&#x2007;" horiz-adv-x="338" />
<glyph unicode="&#x2008;" horiz-adv-x="253" />
<glyph unicode="&#x2009;" horiz-adv-x="406" />
<glyph unicode="&#x200a;" horiz-adv-x="112" />
<glyph unicode="&#x2010;" horiz-adv-x="839" d="M113 385v281h594v-281h-594z" />
<glyph unicode="&#x2011;" horiz-adv-x="839" d="M113 385v281h594v-281h-594z" />
<glyph unicode="&#x2012;" horiz-adv-x="839" d="M113 385v281h594v-281h-594z" />
<glyph unicode="&#x2013;" horiz-adv-x="1288" d="M113 365v280h1042v-280h-1042z" />
<glyph unicode="&#x2014;" horiz-adv-x="1939" d="M113 365v280h1693v-280h-1693z" />
<glyph unicode="&#x2018;" horiz-adv-x="581" d="M51 881v305l236 354h131l-123 -301l119 -14v-344h-363z" />
<glyph unicode="&#x2019;" horiz-adv-x="581" d="M102 821l123 301l-119 15v344h363v-305l-236 -355h-131z" />
<glyph unicode="&#x201a;" horiz-adv-x="632" d="M102 -309l123 301l-119 14v346h363v-307l-236 -354h-131z" />
<glyph unicode="&#x201c;" horiz-adv-x="1093" d="M51 821v305l236 355h131l-123 -301l119 -15v-344h-363zM563 821v305l236 355h131l-123 -301l119 -15v-344h-363z" />
<glyph unicode="&#x201d;" horiz-adv-x="1093" d="M102 821l123 301l-119 15v344h363v-305l-236 -355h-131zM612 821l125 301l-121 15v344h365v-305l-236 -355h-133z" />
<glyph unicode="&#x201e;" horiz-adv-x="1157" d="M102 -309l123 301l-119 14v346h363v-307l-236 -354h-131zM627 -309l123 301l-119 14v346h362v-307l-235 -354h-131z" />
<glyph unicode="&#x2022;" horiz-adv-x="790" d="M72 754q0 126 90 216.5t217 90.5t218 -90.5t91 -216.5q0 -128 -91 -219t-218 -91t-217 91t-90 219z" />
<glyph unicode="&#x2026;" horiz-adv-x="2037" d="M154 0v401h419v-401h-419zM870 0v401h420v-401h-420zM1587 0v401h420v-401h-420z" />
<glyph unicode="&#x202f;" horiz-adv-x="406" />
<glyph unicode="&#x2039;" horiz-adv-x="690" d="M123 514l217 410h207l-131 -410l131 -393h-205z" />
<glyph unicode="&#x203a;" horiz-adv-x="690" d="M123 121l131 393l-131 410h207l217 -410l-219 -393h-205z" />
<glyph unicode="&#x205f;" horiz-adv-x="507" />
<glyph unicode="&#x20ac;" horiz-adv-x="1431" d="M20 469v203h158q-4 58 -4 88q0 33 2 49h-156v201h185q63 229 229 360t393 131q165 0 301.5 -67.5t221.5 -184.5l-273 -192q-36 44 -59 68t-65 46.5t-89 22.5q-148 0 -202 -184h280v-201h-309v-55q0 -55 2 -82h307v-203h-266q65 -162 201 -162q72 0 145 47.5t111 108.5 l210 -219q-88 -117 -225.5 -190.5t-294.5 -73.5q-214 0 -376 132.5t-232 356.5h-195z" />
<glyph unicode="&#x2122;" horiz-adv-x="2033" d="M18 707v219h779v-219h-267v-707h-247v707h-265zM905 0v926h369l151 -566l150 566h369v-926h-250v672l-181 -672h-178l-180 672v-672h-250z" />
<glyph unicode="&#x25fc;" horiz-adv-x="1054" d="M0 0v1055h1055v-1055h-1055z" />
</font>
</defs>
</svg>
